<?xml version="1.0" encoding="UTF-8" standalone="no"?> <svg id="astronaut-pirate" xmlns="http://www.w3.org/2000/svg" viewBox="0 0 64 64"><defs><style>.cls-1{fill:#adadad;}.cls-1,.cls-9{stroke:#adadad;}.cls-1,.cls-11,.cls-13,.cls-2,.cls-3,.cls-5,.cls-7,.cls-9{stroke-linecap:round;stroke-linejoin:round;}.cls-1,.cls-11,.cls-13,.cls-2,.cls-3,.cls-4,.cls-5,.cls-7,.cls-9{stroke-width:2px;}.cls-2{fill:#cfd8dc;stroke:#cfd8dc;}.cls-11,.cls-12,.cls-3,.cls-9{fill:none;}.cls-3{stroke:#54596e;}.cls-4{fill:#45d821;stroke:#45d821;}.cls-12,.cls-4{stroke-miterlimit:10;}.cls-5{fill:#006064;}.cls-11,.cls-5{stroke:#006064;}.cls-6{fill:#eaca80;}.cls-7{fill:#ffe082;stroke:#ffe082;}.cls-13,.cls-8{fill:#4f4f4f;}.cls-10{fill:#4c76f2;}.cls-12,.cls-13{stroke:#4f4f4f;}</style></defs><title>astronaut-pirate</title><path class="cls-1" d="M10.69,26H11a0,0,0,0,1,0,0V40a0,0,0,0,1,0,0h-.31A3.69,3.69,0,0,1,7,36.31V29.69A3.69,3.69,0,0,1,10.69,26Z"/><path class="cls-1" d="M56.69,26H57a0,0,0,0,1,0,0V40a0,0,0,0,1,0,0h-.31A3.69,3.69,0,0,1,53,36.31V29.69A3.69,3.69,0,0,1,56.69,26Z" transform="translate(110 66) rotate(180)"/><path class="cls-2" d="M53,45V26.66C53,14.14,43.6,4,32,4h0C20.4,4,11,14.14,11,26.66V45Z"/><path class="cls-2" d="M52,50H13.13C7.54,50,3,53.35,3,57.49V63H61V56.63C61,53,57,50,52,50Z"/><line class="cls-3" x1="47" y1="59" x2="47" y2="62"/><path class="cls-1" d="M13,47v3c0,1.1,8.51,2,19,2s19-.9,19-2V47Z"/><rect class="cls-4" x="37" y="56" width="10" height="7"/><path class="cls-2" d="M32,44c-11.6,0-21-.9-21-2v5c0,1.1,9.4,2,21,2s21-.9,21-2V42C53,43.1,43.6,44,32,44Z"/><path class="cls-5" d="M12.1,22.43A24.24,24.24,0,0,0,11,29.66V43.39A130.62,130.62,0,0,0,32,45a130.62,130.62,0,0,0,21-1.61V29.66a24.24,24.24,0,0,0-1.1-7.23A132.38,132.38,0,0,0,32,21,132.38,132.38,0,0,0,12.1,22.43Z"/><circle class="cls-6" cx="17" cy="31" r="3"/><circle class="cls-6" cx="47" cy="31" r="3"/><path class="cls-7" d="M43.24,44.56A10.48,10.48,0,0,0,46,37.47V21.69a142.49,142.49,0,0,0-28,0V37.47a10.48,10.48,0,0,0,2.76,7.09c3.58.28,7.34.44,11.24.44S39.66,44.85,43.24,44.56Z"/><circle class="cls-8" cx="25.5" cy="29.5" r="1.5"/><line class="cls-9" x1="57" y1="13" x2="57" y2="34"/><circle class="cls-10" cx="57" cy="11" r="2"/><line class="cls-11" x1="29" y1="21" x2="29" y2="5"/><line class="cls-11" x1="35" y1="21" x2="35" y2="5"/><path class="cls-8" d="M33,26H43a0,0,0,0,1,0,0v3.54A3.46,3.46,0,0,1,39.54,33H36.46A3.46,3.46,0,0,1,33,29.54V26A0,0,0,0,1,33,26Z"/><path class="cls-12" d="M22.08,21.34A31.69,31.69,0,0,0,45,29"/><polyline class="cls-13" points="28 38 36.5 39.5 37 38 28 38"/><path class="cls-11" d="M12.1,22.43A24.24,24.24,0,0,0,11,29.66V43.39A130.62,130.62,0,0,0,32,45a130.62,130.62,0,0,0,21-1.61V29.66a24.24,24.24,0,0,0-1.1-7.23A132.38,132.38,0,0,0,32,21,132.38,132.38,0,0,0,12.1,22.43Z"/></svg>